<svg xmlns="http://www.w3.org/2000/svg" viewBox="0 0 277.98 278.46"><defs><style>.cls-1{fill:#231f20;}</style></defs><g id="Layer_2" data-name="Layer 2"><g id="Layer_1-2" data-name="Layer 1"><path class="cls-1" d="M138.9,67.52a71.38,71.38,0,1,0,71.38,71.38A71.38,71.38,0,0,0,138.9,67.52Zm0,117.74a46.36,46.36,0,1,1,46.36-46.36A46.36,46.36,0,0,1,138.9,185.26Z"/><circle class="cls-1" cx="213.1" cy="64.89" r="16.65"/><path class="cls-1" d="M277.14,82.19A102.17,102.17,0,0,0,270.65,48,71.07,71.07,0,0,0,230,7.34,101.72,101.72,0,0,0,196.26.85C181.4.19,176.7,0,139,0S96.49,0,81.72.85A101.77,101.77,0,0,0,48,7.34,71.08,71.08,0,0,0,7.34,48,101.77,101.77,0,0,0,.85,81.72C.19,96.58,0,101.28,0,139s0,42.51.85,57.27A101.72,101.72,0,0,0,7.34,230,71.07,71.07,0,0,0,48,270.65a102,102,0,0,0,33.76,7c14.86.66,19.56.85,57.27.85s42.51,0,57.27-.85A102,102,0,0,0,230,271.12a71.06,71.06,0,0,0,40.63-40.63,102,102,0,0,0,6.49-33.76c.66-14.85.84-19.56.84-57.27S278,97,277.14,82.19ZM252,195.13h-.19a76.72,76.72,0,0,1-4.8,26.05,46.07,46.07,0,0,1-26.42,26.43,77.14,77.14,0,0,1-25.77,4.8c-14.67.65-18.81.84-56.42.84s-41.47,0-56.43-.84a77.08,77.08,0,0,1-25.76-4.8,46,46,0,0,1-26.52-26.43,76.83,76.83,0,0,1-4.8-25.76c-.66-14.67-.85-18.81-.85-56.43s0-41.47.85-56.42a76.72,76.72,0,0,1,4.8-26A46,46,0,0,1,56.24,30.09,76.82,76.82,0,0,1,82,25.3c14.67-.66,18.81-.85,56.43-.85s41.47,0,56.42.85a76.88,76.88,0,0,1,25.77,4.79A46.07,46.07,0,0,1,247,56.52a76.64,76.64,0,0,1,4.8,25.77c.66,14.67.85,18.8.85,56.42S252.69,180.37,252,195.13Z"/></g></g></svg>